<?xml version="1.0" encoding="utf-8"?>
<!-- Generator: Adobe Illustrator 27.2.0, SVG Export Plug-In . SVG Version: 6.00 Build 0)  -->
<svg version="1.1" id="Слой_1" xmlns="http://www.w3.org/2000/svg" xmlns:xlink="http://www.w3.org/1999/xlink" x="0px" y="0px"
	 viewBox="0 0 436.54 436.54" style="enable-background:new 0 0 436.54 436.54;" xml:space="preserve">
<style type="text/css">
	.st0{display:none;fill:#0E5E51;stroke:#000000;stroke-width:0.9695;stroke-miterlimit:10;}
	.st1{display:none;fill:#162121;}
	.st2{display:none;fill:#7D869E;fill-opacity:0.25;}
	.st3{display:none;fill-rule:evenodd;clip-rule:evenodd;fill:#0E5E51;}
	.st4{display:none;fill:#7D869E;}
	.st5{display:none;fill:#FFFFFF;}
	.st6{display:none;fill:none;stroke:#FFFFFF;stroke-width:23.9266;}
	.st7{display:none;}
	.st8{display:inline;}
	.st9{clip-path:url(#SVGID_00000023992342345847375080000014239239664586855300_);fill:#162121;}
	.st10{display:none;fill:none;stroke:#7D869E;stroke-width:23.1467;stroke-linecap:round;}
	.st11{display:none;fill:none;stroke:#212121;stroke-width:23.1467;stroke-linecap:round;}
	.st12{fill-rule:evenodd;clip-rule:evenodd;fill:#212121;}
</style>
<rect x="19.34" y="14.09" class="st0" width="397.75" height="396.85"/>
<circle class="st1" cx="218.49" cy="218.28" r="216"/>
<circle class="st2" cx="218.49" cy="218.28" r="216"/>
<path class="st3" d="M80.92,143.18c-5.56,12.09-5.56,25.84-5.56,53.34v85.9c0,38.2,0,57.3,11.87,69.16
	c10.77,10.77,27.49,11.76,59.03,11.86V262.17c0-22.38,18.14-40.51,40.51-40.51h60.77c22.38,0,40.51,18.14,40.51,40.51v101.28
	c31.54-0.09,48.27-1.09,59.03-11.86c11.87-11.87,11.87-30.97,11.87-69.16v-85.9c0-27.5,0-41.26-5.56-53.34
	c-5.56-12.09-16-21.04-36.88-38.94l-20.26-17.36c-37.75-32.35-56.62-48.53-79.1-48.53s-41.35,16.18-79.1,48.53l-20.26,17.36
	C96.92,122.14,86.48,131.09,80.92,143.18z M247.55,363.46V262.17h-60.77v101.28H247.55z"/>
<ellipse class="st2" cx="269.82" cy="220.17" rx="162.03" ry="162.03"/>
<circle class="st2" cx="219.81" cy="218.28" r="215.34"/>
<circle class="st4" cx="218.82" cy="218.61" r="216.99"/>
<circle class="st1" cx="218.82" cy="218.61" r="216.99"/>
<ellipse class="st2" cx="218.58" cy="218.94" rx="216.66" ry="216.66"/>
<path class="st5" d="M243.73,98.65c0,13.21-10.71,23.93-23.93,23.93s-23.93-10.71-23.93-23.93s10.71-23.93,23.93-23.93
	S243.73,85.43,243.73,98.65z"/>
<path class="st6" d="M219.81,325.95V206.32c0-11.13,0-16.69-1.22-21.25c-3.32-12.39-12.99-22.06-25.38-25.38
	c-4.56-1.22-10.13-1.22-21.25-1.22l0,0 M219.81,325.95h35.89 M219.81,325.95h-35.89"/>
<path class="st1" d="M38.71,225.76l-17.43-17.43L3.84,225.76l17.43,17.43L38.71,225.76z M408.51,250.42
	c13.62,0,24.65-11.04,24.65-24.65s-11.04-24.65-24.65-24.65V250.42z M169.2,60.41L21.28,208.33l34.87,34.86L204.06,95.28
	L169.2,60.41z M21.28,243.2L169.2,391.12l34.87-34.86L56.14,208.33L21.28,243.2z M38.71,250.42h369.8v-49.31H38.71V250.42z"/>
<circle class="st2" cx="219.81" cy="218.28" r="215.34"/>
<g class="st7">
	<defs>
		<ellipse id="SVGID_1_" cx="269.82" cy="220.17" rx="162.03" ry="162.03"/>
	</defs>
	<clipPath id="SVGID_00000057132650214607291770000015866923996704680591_" class="st8">
		<use xlink:href="#SVGID_1_"  style="overflow:visible;"/>
	</clipPath>
	
		<circle style="clip-path:url(#SVGID_00000057132650214607291770000015866923996704680591_);fill:#162121;" cx="271.66" cy="217.29" r="180.66"/>
</g>
<path class="st10" d="M73.07,162.3L15.2,220.17 M15.2,220.17l57.87,57.87 M15.2,220.17h231.47"/>
<path class="st11" d="M73.07,162.3L15.2,220.17 M15.2,220.17l57.87,57.87 M15.2,220.17h231.47"/>
<path class="st1" d="M38.71,225.76l-17.43-17.43L3.84,225.76l17.43,17.43L38.71,225.76z M408.51,250.42
	c13.62,0,24.65-11.04,24.65-24.65s-11.04-24.65-24.65-24.65V250.42z M169.2,60.41L21.28,208.33l34.87,34.86L204.06,95.28
	L169.2,60.41z M21.28,243.2L169.2,391.12l34.87-34.86L56.14,208.33L21.28,243.2z M38.71,250.42h369.8v-49.31H38.71V250.42z"/>
<path class="st12" d="M435.15,197.3H228.46l71.37-71.37l-30.65-30.65L160.81,203.65l-15.33,15.33l15.33,15.33l108.37,108.37
	l30.65-30.65l-71.37-71.37h206.69c-10.87,109.52-103.28,195.06-215.66,195.06c-119.7,0-216.73-97.04-216.73-216.73
	C2.75,99.28,99.78,2.24,219.48,2.24C331.87,2.24,424.27,87.78,435.15,197.3z"/>
</svg>
