<?xml version="1.0" encoding="utf-8"?>
<!-- Generator: Adobe Illustrator 27.2.0, SVG Export Plug-In . SVG Version: 6.00 Build 0)  -->
<svg version="1.1" id="Слой_1" xmlns="http://www.w3.org/2000/svg" xmlns:xlink="http://www.w3.org/1999/xlink" x="0px" y="0px"
	 viewBox="0 0 436.54 436.54" style="enable-background:new 0 0 436.54 436.54;" xml:space="preserve">
<style type="text/css">
	.st0{display:none;fill:#0E5E51;stroke:#000000;stroke-width:0.9695;stroke-miterlimit:10;}
	.st1{fill:#0E5E51;stroke:#000000;stroke-width:1.097;stroke-miterlimit:10;}
	.st2{fill-rule:evenodd;clip-rule:evenodd;fill:#FFFFFF;}
</style>
<rect x="19.34" y="14.09" class="st0" width="397.75" height="396.85"/>
<circle class="st1" cx="218.49" cy="218.28" r="216"/>
<path class="st2" d="M80.92,143.18c-5.56,12.09-5.56,25.84-5.56,53.34v85.9c0,38.2,0,57.3,11.87,69.16
	c10.77,10.77,27.49,11.76,59.03,11.86V262.17c0-22.38,18.14-40.51,40.51-40.51h60.77c22.38,0,40.51,18.14,40.51,40.51v101.28
	c31.54-0.09,48.27-1.09,59.03-11.86c11.87-11.87,11.87-30.97,11.87-69.16v-85.9c0-27.5,0-41.26-5.56-53.34
	c-5.56-12.09-16-21.04-36.88-38.94l-20.26-17.36c-37.75-32.35-56.62-48.53-79.1-48.53s-41.35,16.18-79.1,48.53l-20.26,17.36
	C96.92,122.14,86.48,131.09,80.92,143.18z M247.55,363.46V262.17h-60.77v101.28H247.55z"/>
</svg>
